<svg width="213" height="215" viewBox="0 0 213 215" fill="none" xmlns="http://www.w3.org/2000/svg">
<path d="M210.506 136.083C210.24 137.008 209.947 137.919 209.628 138.816C204.697 152.785 194.138 163.145 183.495 164.88C182.76 165.001 182.018 165.08 181.274 165.115C180.157 165.171 179.038 165.124 177.93 164.974C172.538 164.238 167.507 163.731 162.807 163.427C161.922 163.368 161.049 163.319 160.188 163.277C113.388 160.938 100.564 179.361 88.766 191.387C88.4234 191.737 88.0814 192.08 87.74 192.418C79.54 200.524 71.3731 205.142 52.0851 197.078C47.402 195.255 43.2445 192.298 39.9852 188.472C39.6738 188.094 39.3781 187.712 39.0981 187.324C24.3651 167.044 46.5591 132.487 46.5591 132.487C43.6021 120.411 35.2911 110.876 27.9151 101.151C27.3631 100.423 26.8175 99.6938 26.2781 98.9632C19.5211 89.8002 14.0042 80.2882 14.9232 68.1772C14.9742 67.5092 15.0442 66.8342 15.1362 66.1492C16.0082 59.5642 18.7751 52.2102 24.2151 43.7492C31.9801 31.6752 40.4021 28.0962 49.6711 27.5052C50.3217 27.4645 50.9755 27.4375 51.6321 27.4242C56.8381 27.3142 62.3071 28.0052 68.0751 28.5572C68.9558 28.6418 69.844 28.7222 70.74 28.7982C86.058 30.0762 103.44 29.4332 123.478 10.1062C138.687 -4.56682 161.678 -1.77882 178.973 9.01518C179.552 9.37451 180.126 9.7445 180.693 10.1252C184.516 12.6724 188.034 15.651 191.176 19.0022C191.876 19.7522 192.55 20.5188 193.198 21.3022C200.493 30.0842 204.33 40.6142 201.944 50.9522C199.421 61.8842 188.876 76.0982 197.835 86.0092C198.297 86.5199 198.747 87.0335 199.184 87.5502C199.835 88.3142 200.459 89.0832 201.055 89.8572C202.537 91.7702 203.902 93.7719 205.14 95.8512C205.6 96.6232 206.036 97.3968 206.448 98.1722C209.514 103.879 211.466 110.117 212.201 116.553C212.29 117.34 212.359 118.125 212.407 118.907C212.772 124.699 212.129 130.511 210.506 136.083Z" fill="#26B1B1"/>
<path d="M212.201 116.545C203.045 120.678 195.262 127.345 189.771 135.757C189.273 136.519 188.795 137.295 188.337 138.085C183.694 146.076 181.255 155.155 181.269 164.397C181.269 164.637 181.271 164.877 181.274 165.116C182.018 165.08 182.76 165.002 183.495 164.881C183.495 164.719 183.495 164.558 183.495 164.397C183.481 155.284 185.958 146.34 190.658 138.532C191.14 137.732 191.643 136.947 192.166 136.177C197.245 128.709 204.237 122.742 212.411 118.899C212.36 118.117 212.29 117.332 212.201 116.545Z" fill="white"/>
<path d="M205.141 95.8423C197.048 97.922 189.472 101.649 182.885 106.79C176.298 111.932 170.843 118.377 166.861 125.722C166.448 126.482 166.051 127.252 165.672 128.032C161.644 136.299 159.557 145.377 159.572 154.572C159.571 157.483 159.779 160.391 160.193 163.272C161.054 163.315 161.927 163.365 162.812 163.422C162.363 160.492 162.139 157.532 162.14 154.568C162.127 145.893 164.067 137.326 167.817 129.502C168.19 128.723 168.581 127.954 168.988 127.194C172.844 119.995 178.173 113.689 184.628 108.686C191.083 103.684 198.52 100.096 206.453 98.1583C206.038 97.3863 205.601 96.6143 205.141 95.8423Z" fill="white"/>
<path d="M201.045 136.852C198.071 136.853 195.102 136.627 192.163 136.176C191.363 136.053 190.566 135.913 189.772 135.756C182.349 134.295 175.285 131.388 168.985 127.199C168.266 126.724 167.558 126.231 166.862 125.722C159.465 120.34 153.447 113.283 149.301 105.129C145.154 96.9754 142.996 87.9558 143.003 78.8081C142.994 70.4579 144.791 62.2046 148.271 54.614C151.75 47.0233 156.83 40.2748 163.162 34.8311C163.976 34.1291 164.809 33.4501 165.662 32.7941C173.673 26.6132 183.169 22.6473 193.197 21.2941C192.551 20.5148 191.877 19.7481 191.175 18.9941C182.527 20.4105 174.292 23.6962 167.045 28.6221C166.105 29.2575 165.185 29.9201 164.285 30.6101C156.863 36.2616 150.849 43.5523 146.711 51.9127C142.574 60.2731 140.425 69.4769 140.433 78.8051C140.425 88.4251 142.711 97.9084 147.1 106.469C151.489 115.029 157.855 122.42 165.671 128.029C166.373 128.536 167.087 129.027 167.812 129.503C174.061 133.612 181.021 136.521 188.336 138.081C189.103 138.246 189.875 138.395 190.654 138.528C194.085 139.121 197.561 139.418 201.044 139.417C203.915 139.419 206.784 139.219 209.627 138.817C209.944 137.921 210.236 137.01 210.505 136.084C207.378 136.597 204.214 136.854 201.045 136.852Z" fill="white"/>
<path d="M199.184 87.5412C189.272 85.5126 180.365 80.1236 173.968 72.2854C167.571 64.4472 164.077 54.6405 164.076 44.5232C164.073 40.5606 164.606 36.6158 165.661 32.7962C166.051 31.3842 166.513 29.9927 167.044 28.6272C169.874 21.3595 174.586 14.9749 180.696 10.1272C180.13 9.7472 179.557 9.37721 178.976 9.01721C172.089 14.6416 166.984 22.1457 164.283 30.6172C163.842 31.9972 163.467 33.4032 163.159 34.8352C162.475 38.0199 162.131 41.268 162.133 44.5252C162.134 55.4844 166.06 66.0808 173.199 74.3953C180.339 82.7097 190.22 88.1924 201.053 89.8502C200.458 89.0756 199.835 88.3059 199.184 87.5412Z" fill="white"/>
<path d="M49.6758 27.5082C48.761 36.7789 44.9222 45.5186 38.7144 52.4644C32.5065 59.4102 24.2509 64.2023 15.1407 66.1483C15.0477 66.8333 14.9788 67.5083 14.9268 68.1763C24.619 66.2452 33.4283 61.2353 40.043 53.8925C46.6576 46.5497 50.7237 37.2669 51.6357 27.4263C50.9791 27.4396 50.3258 27.4669 49.6758 27.5082Z" fill="white"/>
<path d="M70.7449 28.8002C69.8495 28.7256 68.9612 28.6452 68.0798 28.5592C69.4373 33.4874 70.1231 38.5764 70.1188 43.6882C70.1182 56.4958 65.7868 68.9268 57.8282 78.9615C49.8697 88.9962 38.7516 96.0449 26.2808 98.9622C26.8181 99.6955 27.3638 100.425 27.9178 101.15C40.6997 97.9088 52.036 90.4986 60.1339 80.0916C68.2318 69.6845 72.6289 56.8747 72.6298 43.6882C72.6342 38.6658 72.0009 33.6631 70.7449 28.8002Z" fill="white"/>
<path d="M62.038 178.457C53.5541 178.445 45.3729 181.608 39.103 187.323C39.3844 187.711 39.6803 188.094 39.991 188.471C46.0042 182.949 53.874 179.891 62.038 179.902C66.9912 179.898 71.8802 181.023 76.3335 183.191C80.7867 185.36 84.6871 188.515 87.738 192.417C88.08 192.079 88.422 191.736 88.764 191.386C85.5758 187.352 81.5145 184.092 76.8855 181.853C72.2565 179.614 67.1801 178.453 62.038 178.457Z" fill="white"/>
<path d="M82.1489 49.5272V165.427C82.1445 168.319 83.1996 171.113 85.1149 173.279C86.2283 174.546 87.5994 175.561 89.1365 176.255C90.6736 176.95 92.3413 177.308 94.028 177.306H147.692C150.575 177.311 153.36 176.263 155.524 174.358C156.797 173.245 157.816 171.871 158.514 170.331C159.212 168.79 159.572 167.118 159.57 165.427V49.5272C159.572 47.8751 159.228 46.2409 158.561 44.7294C157.894 43.2179 156.919 41.8625 155.697 40.7503C153.51 38.7517 150.654 37.6456 147.692 37.6503H94.0239C92.3172 37.6485 90.6301 38.0153 89.0781 38.7257C87.5262 39.436 86.146 40.4732 85.0319 41.7663C83.1682 43.922 82.1447 46.6776 82.1489 49.5272Z" fill="#5F6386"/>
<path d="M96.5509 172.753H145.175C148.083 172.756 150.89 171.688 153.061 169.753C154.318 168.64 155.324 167.272 156.013 165.74C156.701 164.209 157.056 162.548 157.054 160.869V54.0692C157.056 52.2783 156.652 50.5103 155.872 48.8978C155.093 47.2854 153.958 45.8704 152.554 44.7592C150.456 43.0917 147.854 42.186 145.174 42.1902H96.5499C94.9896 42.1881 93.4443 42.4943 92.0027 43.0913C90.5611 43.6884 89.2518 44.5645 88.1499 45.6692C87.0452 46.7711 86.1692 48.0804 85.5722 49.522C84.9751 50.9635 84.6688 52.5089 84.6709 54.0692V160.869C84.6689 162.484 84.9974 164.083 85.6359 165.567C86.2744 167.051 87.2095 168.388 88.3839 169.497C90.5874 171.591 93.5116 172.756 96.5509 172.753Z" fill="#EBEDFC"/>
<path d="M127.421 46.6382H114.446C112.884 46.6382 111.387 46.0178 110.282 44.9136C109.178 43.8094 108.558 42.3118 108.558 40.7502H133.309C133.309 42.3118 132.688 43.8094 131.584 44.9136C130.48 46.0178 128.982 46.6382 127.421 46.6382V46.6382Z" fill="#5F6386"/>
<path d="M120.829 44.5172C122.295 44.5172 123.483 43.329 123.483 41.8632C123.483 40.3975 122.295 39.2092 120.829 39.2092C119.363 39.2092 118.175 40.3975 118.175 41.8632C118.175 43.329 119.363 44.5172 120.829 44.5172Z" fill="#2A2E42"/>
<path d="M90.6329 86.8992L149.703 86.8992V69.4352H90.6329V86.8992Z" fill="#F8F9FF"/>
<path d="M90.6329 111.169L149.703 111.169V93.7052H90.6329V111.169Z" fill="#F8F9FF"/>
<path d="M90.6329 137.237H149.703V119.773H90.6329V137.237Z" fill="#F8F9FF"/>
<path d="M90.6329 163.305H149.703V145.841H90.6329V163.305Z" fill="#F8F9FF"/>
<path d="M139.815 84.7162H141.099C144.716 84.7162 147.648 81.7841 147.648 78.1672C147.648 74.5503 144.716 71.6182 141.099 71.6182H139.815C136.198 71.6182 133.266 74.5503 133.266 78.1672C133.266 81.7841 136.198 84.7162 139.815 84.7162Z" fill="#EBEDFC"/>
<path d="M140.457 83.0471C143.152 83.0471 145.337 80.8623 145.337 78.1671C145.337 75.472 143.152 73.2871 140.457 73.2871C137.762 73.2871 135.577 75.472 135.577 78.1671C135.577 80.8623 137.762 83.0471 140.457 83.0471Z" fill="#FFBE1A"/>
<path d="M101.676 81.5052H127.486C127.77 81.5052 128 81.2753 128 80.9917C128 80.7082 127.77 80.4782 127.486 80.4782H101.676C101.392 80.4782 101.162 80.7082 101.162 80.9917C101.162 81.2753 101.392 81.5052 101.676 81.5052Z" fill="#EBEDFC"/>
<path d="M108.482 78.0382H127.358C127.642 78.0382 127.872 77.8083 127.872 77.5247C127.872 77.2411 127.642 77.0112 127.358 77.0112H108.482C108.198 77.0112 107.968 77.2411 107.968 77.5247C107.968 77.8083 108.198 78.0382 108.482 78.0382Z" fill="#EBEDFC"/>
<path d="M101.548 74.3141H127.358C127.641 74.3141 127.872 74.0842 127.872 73.8006C127.872 73.517 127.641 73.2871 127.358 73.2871H101.548C101.264 73.2871 101.034 73.517 101.034 73.8006C101.034 74.0842 101.264 74.3141 101.548 74.3141Z" fill="#EBEDFC"/>
<path d="M139.943 108.986H141.227C144.844 108.986 147.776 106.054 147.776 102.437C147.776 98.8203 144.844 95.8882 141.227 95.8882H139.943C136.326 95.8882 133.394 98.8203 133.394 102.437C133.394 106.054 136.326 108.986 139.943 108.986Z" fill="#EBEDFC"/>
<path d="M140.586 107.317C143.281 107.317 145.466 105.132 145.466 102.437C145.466 99.742 143.281 97.5571 140.586 97.5571C137.891 97.5571 135.706 99.742 135.706 102.437C135.706 105.132 137.891 107.317 140.586 107.317Z" fill="#FFBE1A"/>
<path d="M101.805 105.775H127.615C127.899 105.775 128.129 105.545 128.129 105.262C128.129 104.978 127.899 104.748 127.615 104.748H101.805C101.521 104.748 101.291 104.978 101.291 105.262C101.291 105.545 101.521 105.775 101.805 105.775Z" fill="#EBEDFC"/>
<path d="M108.611 102.308H127.487C127.771 102.308 128.001 102.078 128.001 101.795C128.001 101.511 127.771 101.281 127.487 101.281H108.611C108.327 101.281 108.097 101.511 108.097 101.795C108.097 102.078 108.327 102.308 108.611 102.308Z" fill="#EBEDFC"/>
<path d="M101.676 98.5841H127.486C127.77 98.5841 128 98.3542 128 98.0706C128 97.787 127.77 97.5571 127.486 97.5571H101.676C101.392 97.5571 101.162 97.787 101.162 98.0706C101.162 98.3542 101.392 98.5841 101.676 98.5841Z" fill="#EBEDFC"/>
<path d="M139.815 135.054H141.099C144.716 135.054 147.648 132.122 147.648 128.505C147.648 124.888 144.716 121.956 141.099 121.956H139.815C136.198 121.956 133.266 124.888 133.266 128.505C133.266 132.122 136.198 135.054 139.815 135.054Z" fill="#EBEDFC"/>
<path d="M140.457 133.385C143.152 133.385 145.337 131.2 145.337 128.505C145.337 125.81 143.152 123.625 140.457 123.625C137.762 123.625 135.577 125.81 135.577 128.505C135.577 131.2 137.762 133.385 140.457 133.385Z" fill="#FFBE1A"/>
<path d="M101.676 131.843H127.486C127.77 131.843 128 131.613 128 131.33C128 131.046 127.77 130.816 127.486 130.816H101.676C101.392 130.816 101.162 131.046 101.162 131.33C101.162 131.613 101.392 131.843 101.676 131.843Z" fill="#EBEDFC"/>
<path d="M108.482 128.376H127.358C127.642 128.376 127.872 128.146 127.872 127.863C127.872 127.579 127.642 127.349 127.358 127.349H108.482C108.198 127.349 107.968 127.579 107.968 127.863C107.968 128.146 108.198 128.376 108.482 128.376Z" fill="#EBEDFC"/>
<path d="M101.548 124.652H127.358C127.641 124.652 127.872 124.422 127.872 124.139C127.872 123.855 127.641 123.625 127.358 123.625H101.548C101.264 123.625 101.034 123.855 101.034 124.139C101.034 124.422 101.264 124.652 101.548 124.652Z" fill="#EBEDFC"/>
<path d="M139.815 161.122H141.099C144.716 161.122 147.648 158.19 147.648 154.573C147.648 150.956 144.716 148.024 141.099 148.024H139.815C136.198 148.024 133.266 150.956 133.266 154.573C133.266 158.19 136.198 161.122 139.815 161.122Z" fill="#EBEDFC"/>
<path d="M140.457 159.453C143.152 159.453 145.337 157.268 145.337 154.573C145.337 151.878 143.152 149.693 140.457 149.693C137.762 149.693 135.577 151.878 135.577 154.573C135.577 157.268 137.762 159.453 140.457 159.453Z" fill="#FFAA40"/>
<path d="M101.676 157.911H127.486C127.77 157.911 128 157.681 128 157.398C128 157.114 127.77 156.884 127.486 156.884H101.676C101.392 156.884 101.162 157.114 101.162 157.398C101.162 157.681 101.392 157.911 101.676 157.911Z" fill="#EBEDFC"/>
<path d="M108.482 154.444H127.358C127.642 154.444 127.872 154.214 127.872 153.931C127.872 153.647 127.642 153.417 127.358 153.417H108.482C108.198 153.417 107.968 153.647 107.968 153.931C107.968 154.214 108.198 154.444 108.482 154.444Z" fill="#EBEDFC"/>
<path d="M101.548 150.72H127.358C127.641 150.72 127.872 150.49 127.872 150.207C127.872 149.923 127.641 149.693 127.358 149.693H101.548C101.264 149.693 101.034 149.923 101.034 150.207C101.034 150.49 101.264 150.72 101.548 150.72Z" fill="#EBEDFC"/>
<g opacity="0.23">
<path opacity="0.23" d="M159.633 49.5272V165.427C159.637 168.319 158.582 171.112 156.667 173.279C155.553 174.546 154.182 175.561 152.645 176.255C151.108 176.95 149.441 177.308 147.754 177.306H108.474C112.795 176.612 116.935 175.066 120.654 172.758C143.509 158.407 144.345 116.519 144.345 79.4583C144.345 63.2833 138.135 52.6942 130.412 45.7792C128.971 44.4897 127.448 43.2949 125.852 42.2023C125.109 41.6929 124.364 41.2109 123.615 40.7562C121.707 39.5992 119.729 38.5638 117.691 37.6563H147.754C149.461 37.6545 151.148 38.0213 152.7 38.7317C154.252 39.4421 155.632 40.4792 156.746 41.7722C158.61 43.9259 159.635 46.6791 159.633 49.5272Z" fill="white"/>
</g>
<path d="M9.8718 180.064L2.75388 188.943C2.53021 189.222 2.2167 189.415 1.86679 189.489C1.51688 189.563 1.15216 189.513 0.834809 189.348C0.654445 189.255 0.494341 189.127 0.363496 188.971C0.23265 188.816 0.133622 188.636 0.0722358 188.443C0.0108492 188.249 -0.0117201 188.045 0.00570745 187.843C0.023135 187.641 0.0802125 187.443 0.173798 187.263L7.4808 173.179L11.9808 175.873L9.8718 180.064Z" fill="#113251"/>
<path d="M8.03233 178.548C7.74874 177.994 7.69662 177.351 7.88743 176.758C8.07825 176.166 8.49637 175.674 9.04987 175.391L12.4223 173.661L14.5628 177.835L11.1903 179.565C10.6367 179.849 9.99292 179.901 9.40068 179.71C8.80844 179.52 8.31623 179.101 8.03233 178.548V178.548Z" fill="#FD8B66"/>
<path d="M77.7507 202.898L85.0618 211.619C85.2913 211.893 85.4188 212.238 85.4226 212.596C85.4264 212.953 85.3064 213.301 85.0828 213.58C84.9558 213.739 84.7987 213.871 84.6207 213.968C84.4427 214.066 84.2472 214.128 84.0453 214.15C83.8434 214.172 83.6391 214.154 83.4441 214.098C83.2491 214.041 83.0671 213.946 82.9087 213.819L70.5317 203.89L74.0557 200.006L77.7507 202.898Z" fill="#113251"/>
<path d="M76.1237 204.842C75.5099 204.943 74.8812 204.796 74.3758 204.434C73.8703 204.071 73.5295 203.523 73.4284 202.909L72.8119 199.169L77.4404 198.406L78.0569 202.146C78.1581 202.76 78.0113 203.389 77.6487 203.894C77.2862 204.4 76.7376 204.741 76.1237 204.842V204.842Z" fill="#FD8B66"/>
<path d="M64.8449 90.1952C64.8449 90.1952 70.0119 93.0392 75.2939 96.3572C81.1499 100.036 87.0939 104.374 85.2409 107.699C81.1529 115.02 60.2569 96.9833 60.2569 96.9833C57.4439 93.6823 61.1119 89.2632 64.8449 90.1952Z" fill="#FD8B66"/>
<path d="M73.8737 94.3682C72.4886 98.219 70.3805 101.77 67.6627 104.829L56.9497 95.2742L61.8698 88.1912L73.8737 94.3682Z" fill="#113251"/>
<path d="M100.206 91.4373C100.206 91.4373 76.424 102.495 79.449 108.146C82.86 114.518 103.095 94.2593 103.095 94.2593C103.095 94.2593 103.565 92.2323 100.206 91.4373Z" fill="#FD8B66"/>
<path d="M98.737 92.1453C98.667 91.2597 98.8301 90.3712 99.2101 89.5682C99.9141 88.6343 100.312 87.5053 100.348 86.3363C100.312 84.9303 101.978 84.9573 101.948 86.1843C101.918 87.4113 101.573 89.3843 103.17 88.7523C104.767 88.1203 106.392 84.2523 108.019 86.0433C108.019 86.0433 109.184 84.4432 109.824 84.9222C110.464 85.4012 109.417 86.8623 109.417 86.8623C109.417 86.8623 111.765 86.7303 108.448 90.0623C108.448 90.0623 109.384 90.5243 108.823 91.2393C107.923 92.3823 105.072 94.0703 102.561 94.7913C98.4801 95.9563 98.737 92.1453 98.737 92.1453Z" fill="#FD8B66"/>
<path d="M104.299 89.8802L104.141 89.6802C107.448 87.0532 107.897 86.0052 107.901 85.9952L108.137 86.0903C108.119 86.1353 107.658 87.2112 104.299 89.8802Z" fill="#FD8B66"/>
<path d="M105.42 90.7682L105.277 90.5582C106.753 89.4426 108.109 88.1754 109.321 86.7772L109.514 86.9432C108.287 88.3581 106.915 89.6402 105.42 90.7682Z" fill="#FD8B66"/>
<path d="M105.963 91.9402L105.822 91.7292C106.954 90.9752 108.36 89.9642 108.374 89.9542L108.523 90.1612C108.508 90.1712 107.099 91.1852 105.963 91.9402Z" fill="#FD8B66"/>
<path d="M69.9338 168.61C71.5578 168.285 72.9955 167.35 73.9518 165.998C74.9081 164.646 75.3102 162.979 75.0758 161.339C73.0018 146.93 70.3808 132.734 67.8969 122.093L53.3298 121.005C56.2188 133.113 59.8698 150.693 62.2878 163.459C62.4472 164.302 62.7721 165.104 63.2438 165.82C63.7154 166.536 64.3245 167.152 65.0356 167.631C65.7468 168.11 66.5458 168.443 67.3866 168.611C68.2274 168.779 69.0932 168.779 69.9338 168.61Z" fill="#217A7A"/>
<path d="M67.4768 156.356C68.3401 156.183 69.2298 156.187 70.0912 156.37C70.9526 156.553 71.7675 156.91 72.4857 157.42C73.204 157.929 73.8105 158.58 74.268 159.333C74.7254 160.085 75.0241 160.923 75.1458 161.795C76.8778 174.225 79.3018 190.295 80.3378 198.283L69.5748 200.445C68.2008 191.387 64.5108 175.106 62.4008 163.881C62.0868 162.211 62.4437 160.485 63.3938 159.076C64.344 157.668 65.811 156.691 67.4768 156.356Z" fill="#217A7A"/>
<path d="M45.3979 167.005C47.0494 167.13 48.6857 166.617 49.9708 165.572C51.2559 164.527 52.0923 163.03 52.3079 161.388C54.1919 146.953 55.6539 132.131 56.1279 121.215L41.9809 120.158C41.5019 132.597 40.5328 147.041 39.4218 159.985C39.3483 160.84 39.4451 161.7 39.7064 162.517C39.9677 163.333 40.3885 164.09 40.9443 164.743C41.5001 165.396 42.1799 165.932 42.9444 166.32C43.7089 166.709 44.5428 166.941 45.3979 167.005Z" fill="#217A7A"/>
<path d="M51.8948 157.733C52.2965 158.517 52.5337 159.374 52.5919 160.253C52.6502 161.131 52.5282 162.012 52.2335 162.842C51.9388 163.672 51.4775 164.432 50.8781 165.077C50.2786 165.722 49.5537 166.238 48.7478 166.592C37.2588 171.642 23.0007 177.752 15.5997 180.923L10.5908 171.154C18.9328 167.366 33.0457 159.981 43.2727 154.895C44.7942 154.139 46.5526 154.013 48.1665 154.544C49.7804 155.075 51.12 156.221 51.8948 157.733Z" fill="#217A7A"/>
<path d="M67.9098 122.095C67.9098 122.095 69.7258 93.3583 62.8318 88.7333C58.8798 86.0813 50.2898 86.0803 45.6918 88.9923C41.0518 91.9303 42.0647 120.164 42.0647 120.164L67.9098 122.095Z" fill="#113251"/>
<path d="M48.9998 91.3172C48.9998 91.3172 52.8079 95.8172 56.5539 100.81C60.7059 106.341 64.7088 112.519 61.7858 114.959C55.3498 120.333 42.2858 96.0162 42.2858 96.0162C40.8388 91.9262 45.8448 89.1112 48.9998 91.3172Z" fill="#FD8B66"/>
<path d="M55.9359 98.4423C53.3903 101.67 50.1222 104.255 46.3949 105.989L42.1349 97.7403C41.4929 96.4976 41.3279 95.0628 41.6713 93.7068C42.0147 92.3509 42.8428 91.1675 43.9989 90.3802L48.0459 87.6233L55.9359 98.4423Z" fill="#113251"/>
<path d="M56.3639 91.6851C59.3589 91.9091 60.9859 88.5121 60.2399 87.6481C60.0183 87.3757 59.8488 87.0649 59.7399 86.7311C59.5737 86.2301 59.4752 85.7091 59.4469 85.1821L54.2799 79.8301C54.3439 82.9961 52.8329 85.1031 52.2279 86.6391C51.6229 88.1751 52.9539 91.4311 56.3639 91.6851Z" fill="#FD8B66"/>
<g opacity="0.14">
<g opacity="0.14">
<path opacity="0.14" d="M54.9658 83.6182C55.382 84.5372 56.052 85.3183 56.8967 85.8697C57.7415 86.4212 58.7261 86.72 59.7349 86.7312C59.5686 86.2303 59.4701 85.7093 59.4419 85.1822C59.2969 85.0822 53.6908 80.6642 54.9658 83.6182Z" fill="#231F20"/>
</g>
</g>
<path d="M49.2188 73.7672C49.2188 73.7672 49.2427 76.6552 53.1937 79.9242C57.3377 83.3512 53.0687 73.4512 53.0687 73.4512L49.2188 73.7672Z" fill="#8E3332"/>
<path d="M60.739 72.8953C60.739 72.8953 61.145 75.4122 61.703 78.2452C62.503 82.2952 62.355 85.5103 58.313 85.2083C51.524 84.7013 52.813 73.4692 52.813 73.4692L60.739 72.8953Z" fill="#FD8B66"/>
<path d="M54.905 74.9072C54.905 74.9072 65.105 75.4392 64.213 68.4502C63.321 61.4612 58.694 69.6952 56.624 69.5412C54.195 69.3592 47.554 69.2193 49.55 75.1813C50.068 76.7273 51.219 74.8652 54.905 74.9072Z" fill="#8E3332"/>
<path d="M56.1527 93.6351C53.3897 93.4281 51.2087 91.3732 49.6577 87.5062L50.1298 87.3162C51.8188 91.5242 54.2588 93.4692 57.3798 93.0962C60.7588 92.6962 61.8557 88.3082 61.8667 88.2642L62.3617 88.3842C62.3147 88.5792 61.1617 93.1561 57.4397 93.6011C57.0128 93.6541 56.5818 93.6655 56.1527 93.6351Z" fill="#83CAF2"/>
<path d="M45.2759 103.474L45.0588 103.013C45.1218 102.983 51.4029 100 53.8029 97.2262L54.1879 97.5592C51.7139 100.415 45.5379 103.35 45.2759 103.474Z" fill="#83CAF2"/>
<path d="M61.1168 137.196L50.5308 136.824L52.4648 127.752C52.4648 127.752 56.5029 127.914 57.4749 127.987C58.4469 128.06 61.1168 137.196 61.1168 137.196Z" fill="#217A7A"/>
<path d="M54.1478 132.313L54.0479 131.813L57.9338 131.047L57.1338 121.717L57.6409 121.673L58.4828 131.458L54.1478 132.313Z" fill="#30354F"/>
<path d="M46.0575 120.617L41.4238 130.326L41.8832 130.545L46.5168 120.836L46.0575 120.617Z" fill="#30354F"/>
<path d="M64.8554 121.844L64.4009 122.072L70.2343 133.674L70.6888 133.446L64.8554 121.844Z" fill="#30354F"/>
<path d="M69.3751 200.744L68.5361 196.377L80.0231 193.288L80.623 198.488L69.3751 200.744ZM69.1251 196.744L69.7781 200.144L80.0591 198.079L79.5831 193.933L69.1251 196.744Z" fill="#30354F"/>
<path d="M15.4779 181.24L10.2439 171.033L14.6239 168.986L20.0118 179.493L15.4779 181.24ZM10.9379 171.271L15.7219 180.6L19.3009 179.222L14.3959 169.655L10.9379 171.271Z" fill="#30354F"/>
<path d="M53.0037 82.8912C54.1381 82.8912 55.0577 81.9716 55.0577 80.8372C55.0577 79.7028 54.1381 78.7832 53.0037 78.7832C51.8693 78.7832 50.9497 79.7028 50.9497 80.8372C50.9497 81.9716 51.8693 82.8912 53.0037 82.8912Z" fill="#FD8B66"/>
<path d="M52.8521 76.8113C52.8521 76.8113 53.76 79.6023 55.087 80.5393C56.414 81.4763 58.871 79.4253 62.157 80.2993C62.157 80.2993 62.157 83.9993 60.829 85.9253C60.829 85.9253 57.236 86.3553 55.329 83.9083C54.1135 82.3255 53.0477 80.6332 52.145 78.8533L52.8521 76.8113Z" fill="#8E3332"/>
<path d="M60.887 81.3911L58.7139 81.5081C58.7139 81.5081 58.7799 83.4331 59.9729 83.3481C61.1659 83.2631 60.887 81.3911 60.887 81.3911Z" fill="white"/>
<path d="M57.3677 76.8873C57.3603 76.9908 57.394 77.0931 57.4616 77.1717C57.5292 77.2504 57.6253 77.2991 57.7287 77.3073C57.7801 77.3113 57.8319 77.3051 57.8809 77.289C57.9299 77.2729 57.9752 77.2474 58.0143 77.2137C58.0534 77.1801 58.0856 77.1391 58.1088 77.093C58.132 77.047 58.1459 76.9967 58.1497 76.9453C58.1535 76.894 58.1471 76.8424 58.131 76.7935C58.1149 76.7446 58.0893 76.6993 58.0557 76.6603C58.0221 76.6213 57.9811 76.5893 57.9351 76.5662C57.8891 76.543 57.839 76.5291 57.7876 76.5253C57.7363 76.5214 57.6846 76.5276 57.6357 76.5437C57.5867 76.5598 57.5415 76.5854 57.5025 76.619C57.4635 76.6527 57.4314 76.6937 57.4082 76.7397C57.3851 76.7858 57.3714 76.8359 57.3677 76.8873Z" fill="#8E3332"/>
<path d="M59.8458 76.5302C59.8381 76.6337 59.8718 76.7361 59.9394 76.8149C60.0071 76.8936 60.1032 76.9423 60.2068 76.9502C60.2581 76.954 60.3097 76.9476 60.3586 76.9315C60.4075 76.9154 60.4528 76.8898 60.4918 76.8562C60.5308 76.8226 60.5628 76.7816 60.5859 76.7356C60.6091 76.6896 60.623 76.6395 60.6268 76.5882C60.6343 76.4847 60.6005 76.3824 60.5328 76.3038C60.4652 76.2251 60.3692 76.1764 60.2657 76.1682C60.2144 76.1644 60.1629 76.1707 60.114 76.1868C60.0651 76.2029 60.0198 76.2286 59.9808 76.2622C59.9418 76.2958 59.9097 76.3367 59.8866 76.3827C59.8634 76.4287 59.8496 76.4788 59.8458 76.5302Z" fill="#8E3332"/>
<path d="M59.6269 80.0532C59.4038 80.035 59.1873 79.9692 58.9918 79.8602L59.2349 79.4132C59.3866 79.5222 59.5728 79.5722 59.7587 79.5538C59.9446 79.5354 60.1175 79.4498 60.2449 79.3132C60.3849 79.0702 60.0289 78.8262 59.9169 78.7582C59.5539 78.5377 59.2671 78.2114 59.0951 77.8231C58.9231 77.4348 58.8742 77.0031 58.9549 76.5862L59.4549 76.6972L59.2058 76.6422L59.4549 76.6962C59.3966 77.0097 59.4353 77.3335 59.5659 77.6244C59.6966 77.9153 59.9128 78.1595 60.1858 78.3242C60.8518 78.7322 60.8738 79.2492 60.6858 79.5682C60.5714 79.739 60.4118 79.8748 60.2249 79.9604C60.0379 80.0461 59.831 80.0781 59.6269 80.0532Z" fill="#8E3332"/>
<path d="M56.7119 76.2042L56.2639 75.9612C56.3968 75.7093 56.5944 75.4975 56.8364 75.3475C57.0785 75.1976 57.3562 75.1149 57.6409 75.1082L57.6309 75.6172C57.4396 75.6257 57.2541 75.6844 57.0928 75.7875C56.9314 75.8905 56.8001 76.0342 56.7119 76.2042Z" fill="#8E3332"/>
<path d="M59.49 75.3451L59.228 74.9091C59.7275 74.651 60.3079 74.5975 60.8461 74.7601L60.692 75.2451C60.2929 75.1274 59.8642 75.1631 59.49 75.3451Z" fill="#8E3332"/>
<path d="M96.0709 84.4602L79.356 80.1093L88.7679 68.8882L92.2949 64.6882L93.3229 70.0722L96.0709 84.4602Z" fill="#C7C7E3"/>
<path d="M79.4567 79.7258L55.6389 171.216L72.3505 175.567L96.1682 84.0763L79.4567 79.7258Z" fill="#5F6386"/>
<path d="M93.324 70.0683C92.9521 70.3145 92.5337 70.4822 92.0947 70.5609C91.6557 70.6397 91.2053 70.6279 90.771 70.5263C90.3437 70.4034 89.946 70.1946 89.6022 69.9128C89.2583 69.631 88.9755 69.282 88.771 68.8873L92.298 64.6873L93.324 70.0683Z" fill="#5F6386"/>
<path d="M83.0124 78.7234L58.7249 172.018L62.3355 172.958L86.623 79.6634L83.0124 78.7234Z" fill="#C7C7E3"/>
<path d="M90.1725 80.5874L65.885 173.882L69.4956 174.822L93.7832 81.5274L90.1725 80.5874Z" fill="#C7C7E3"/>
<path d="M61.0999 165.629C58.6098 164.98 56.0657 166.473 55.4175 168.963C54.7694 171.453 56.2625 173.997 58.7526 174.645L67.8397 177.011C70.3298 177.659 72.8739 176.166 73.5221 173.676C74.1703 171.186 72.6771 168.643 70.187 167.994L61.0999 165.629Z" fill="#C7C7E3"/>
<path d="M77.0919 97.2072C77.0919 97.2072 53.303 107.807 56.761 114.186C60.661 121.379 80.2369 100.48 80.2369 100.48C80.2369 100.48 80.5959 98.2902 77.0919 97.2072Z" fill="#FD8B66"/>
<path d="M75.6239 97.8892C75.4963 96.9456 75.6095 95.9852 75.9529 95.0972C76.6332 94.0724 76.9734 92.8592 76.9249 91.6301C76.8019 90.0881 78.5178 90.2242 78.5638 91.5662C78.6098 92.9082 78.3729 95.0441 79.9769 94.4551C81.5809 93.8661 83.0179 89.7361 84.7999 91.7961C84.7999 91.7961 85.8999 90.1152 86.5879 90.6832C87.2759 91.2512 86.2878 92.7831 86.2878 92.7831C86.2878 92.7831 88.6949 92.7832 85.4879 96.2222C85.4879 96.2222 86.4809 96.7871 85.9469 97.5341C85.0939 98.7281 82.2619 100.396 79.7219 101.026C75.5909 102.046 75.6239 97.8892 75.6239 97.8892Z" fill="#FD8B66"/>
<path d="M81.202 95.7461L81.04 95.5461C84.251 92.9031 84.6761 91.7631 84.6791 91.7521L84.92 91.8331C84.905 91.8791 84.495 93.0341 81.202 95.7461Z" fill="#FD8B66"/>
<path d="M82.407 96.7912L82.2629 96.5812C83.7191 95.4464 85.0365 94.1441 86.188 92.7012L86.3879 92.8592C85.2206 94.3222 83.8844 95.6421 82.407 96.7912Z" fill="#FD8B66"/>
<path d="M83.037 98.1081L82.895 97.8971C84.013 97.1451 85.395 96.1271 85.411 96.1161L85.562 96.3221C85.548 96.3321 84.16 97.3521 83.037 98.1081Z" fill="#FD8B66"/>
<path d="M181.328 96.5071C179.838 96.5056 178.409 95.9128 177.355 94.8589C176.302 93.8051 175.709 92.3764 175.708 90.8862C175.71 89.3961 176.302 87.9676 177.356 86.9139C178.409 85.8603 179.838 85.2677 181.328 85.2661C182.818 85.2677 184.247 85.8603 185.3 86.9139C186.354 87.9676 186.946 89.3961 186.948 90.8862C186.946 92.3763 186.354 93.8049 185.3 94.8587C184.247 95.9125 182.818 96.5053 181.328 96.5071ZM181.328 85.6981C179.953 85.701 178.634 86.2487 177.662 87.2212C176.689 88.1937 176.142 89.5118 176.139 90.8871C176.142 92.2625 176.689 93.5806 177.662 94.5531C178.634 95.5256 179.953 96.0732 181.328 96.0761C182.703 96.0732 184.021 95.5256 184.994 94.5531C185.966 93.5806 186.514 92.2625 186.517 90.8871C186.514 89.5118 185.966 88.1937 184.994 87.2212C184.021 86.2487 182.703 85.701 181.328 85.6981Z" fill="#494E6D"/>
<path d="M109.468 31.6993C108.623 31.6982 107.812 31.362 107.215 30.7643C106.617 30.1667 106.281 29.3564 106.28 28.5112C106.281 27.6659 106.617 26.8554 107.214 26.2575C107.812 25.6597 108.622 25.3233 109.468 25.3223C110.313 25.3233 111.124 25.6597 111.721 26.2575C112.319 26.8554 112.655 27.6659 112.656 28.5112C112.655 29.3564 112.318 30.1667 111.721 30.7643C111.123 31.362 110.313 31.6982 109.468 31.6993ZM109.468 25.7543C108.737 25.7548 108.036 26.0455 107.519 26.5624C107.002 27.0793 106.711 27.7802 106.711 28.5112C106.711 29.2423 107.002 29.9432 107.519 30.4601C108.036 30.9771 108.737 31.2677 109.468 31.2682C110.199 31.2675 110.9 30.9768 111.416 30.4599C111.933 29.943 112.224 29.2422 112.225 28.5112C112.224 27.7804 111.933 27.0799 111.416 26.5633C110.899 26.0466 110.199 25.756 109.468 25.7552V25.7543Z" fill="#FFBE1A"/>
<path d="M47.273 61.7181C47.273 61.7181 46.809 59.1391 50.192 58.9111C53.575 58.6831 54.576 60.0251 53.518 61.5461C52.46 63.0671 47.132 65.1671 47.273 61.7181Z" fill="#494E6D"/>
<path d="M173.202 155.406C173.202 155.406 170.659 154.774 171.834 151.594C173.009 148.414 174.643 148.048 175.6 149.636C176.557 151.224 176.287 156.945 173.202 155.406Z" fill="#FFAA40"/>
<path d="M202.011 139.854C201.725 139.855 201.442 139.79 201.184 139.666C200.926 139.542 200.7 139.361 200.522 139.137L196.35 133.959C196.135 133.698 195.994 133.384 195.942 133.05C195.889 132.716 195.926 132.374 196.05 132.059C196.17 131.743 196.373 131.464 196.636 131.252C196.9 131.04 197.215 130.902 197.55 130.852L204.12 129.828C204.453 129.774 204.796 129.81 205.111 129.932C205.426 130.053 205.703 130.257 205.914 130.521C206.128 130.783 206.269 131.096 206.322 131.43C206.375 131.764 206.337 132.106 206.214 132.421L203.814 138.621C203.694 138.938 203.492 139.217 203.228 139.429C202.964 139.641 202.649 139.779 202.314 139.828C202.214 139.845 202.112 139.853 202.011 139.854ZM204.424 130.236C204.345 130.236 204.266 130.242 204.188 130.254L197.618 131.279C197.358 131.318 197.114 131.425 196.91 131.59C196.706 131.754 196.549 131.97 196.456 132.215C196.36 132.459 196.33 132.724 196.371 132.983C196.411 133.242 196.52 133.486 196.686 133.689L200.858 138.867C201.021 139.072 201.236 139.23 201.48 139.325C201.725 139.419 201.99 139.447 202.249 139.405C202.508 139.366 202.752 139.259 202.956 139.094C203.16 138.93 203.317 138.714 203.41 138.469L205.81 132.269C205.906 132.025 205.935 131.76 205.895 131.501C205.855 131.242 205.746 130.998 205.58 130.795C205.442 130.621 205.266 130.48 205.066 130.383C204.866 130.286 204.646 130.236 204.424 130.236Z" fill="#FFAA40"/>
<path d="M147.221 29.6731C147.221 29.6731 143.86 27.9371 146.573 23.8631C149.286 19.7891 151.702 19.8212 152.515 22.3702C153.328 24.9192 151.047 32.8661 147.221 29.6731Z" fill="#FFBE1A"/>
<path d="M55.0199 188.777C55.0199 188.777 51.659 187.041 54.372 182.968C57.085 178.895 59.501 178.926 60.314 181.475C61.127 184.024 58.8459 191.97 55.0199 188.777Z" fill="#FFBE1A"/>
<path d="M172.219 64.0292C172.219 64.0292 171.755 61.4502 175.138 61.2222C178.521 60.9942 179.522 62.3362 178.464 63.8582C177.406 65.3802 172.078 67.4792 172.219 64.0292Z" fill="#494E6D"/>
<path d="M60.7529 44.4423C60.4667 44.4426 60.1842 44.3782 59.9263 44.2541C59.6685 44.1299 59.442 43.9491 59.2639 43.7252L55.0919 38.5472C54.8773 38.2859 54.7364 37.972 54.6837 37.638C54.6309 37.304 54.6682 36.962 54.7918 36.6472C54.9117 36.3306 55.1139 36.0519 55.3776 35.8397C55.6413 35.6275 55.9569 35.4896 56.2918 35.4402L62.8619 34.4163C63.1955 34.3617 63.5376 34.3972 63.853 34.519C64.1683 34.6408 64.4455 34.8446 64.6558 35.1092C64.8704 35.3706 65.0113 35.6844 65.064 36.0184C65.1168 36.3524 65.0795 36.6945 64.9559 37.0092L62.5559 43.2092C62.436 43.5258 62.2338 43.8046 61.97 44.0168C61.7063 44.229 61.3907 44.3669 61.0559 44.4163C60.9557 44.4326 60.8544 44.4413 60.7529 44.4423ZM62.9299 34.8422L56.3598 35.8662C56.1006 35.9052 55.8566 36.0124 55.6525 36.1769C55.4485 36.3414 55.2919 36.5572 55.1988 36.8022C55.1027 37.0462 55.0733 37.3113 55.1137 37.5704C55.1541 37.8295 55.2629 38.0732 55.4288 38.2762L59.6008 43.4542C59.7642 43.6591 59.9792 43.8168 60.2236 43.9114C60.468 44.0059 60.733 44.0338 60.9918 43.9922C61.2511 43.9533 61.4955 43.8461 61.6997 43.6816C61.9039 43.5171 62.0606 43.3013 62.1539 43.0562L64.5538 36.8562C64.6497 36.6122 64.679 36.3471 64.6386 36.0881C64.5982 35.829 64.4895 35.5854 64.3238 35.3822C64.1605 35.1772 63.9457 35.0193 63.7012 34.9247C63.4568 34.8302 63.1915 34.8024 62.9328 34.8442L62.9299 34.8422Z" fill="#FFBE1A"/>
<path d="M184.413 167.303C184.413 167.303 187.533 162.303 187.673 158.646C187.813 154.989 188.002 154.246 190.302 152.463C192.602 150.68 194.033 149.196 193.396 146.003C192.759 142.81 193.415 141.791 195.715 140.003C198.015 138.215 199.174 135.218 196.955 132.544C194.736 129.87 189.618 131.861 188.241 135.2C186.864 138.539 188.058 141.61 184.297 144.473C180.536 147.336 182.381 150.443 182.62 152.612C182.859 154.781 179.539 155.912 179.904 157.586C180.269 159.26 182.352 171.258 184.413 167.303Z" fill="#FFBE1A"/>
<path d="M183.206 167.22C184.514 165.572 184.606 163.006 184.638 160.993C184.683 158.519 183.919 155.769 184.954 153.414C185.74 151.627 187.3 150.345 188.373 148.746C188.939 147.927 189.313 146.99 189.466 146.005C189.537 144.834 189.686 143.669 189.912 142.517C190.712 139.742 193.04 137.817 195.203 136.08C195.42 135.906 195.112 135.603 194.903 135.78C193.003 137.12 191.392 138.827 190.165 140.8C189.682 141.693 189.374 142.669 189.256 143.677C189.241 144.97 189.023 146.252 188.61 147.477C187.803 149.25 186.243 150.525 185.183 152.132C183.926 154.039 183.947 156.14 184.111 158.341C184.235 159.775 184.238 161.217 184.12 162.651C184.123 164.161 183.703 165.642 182.906 166.924C182.736 167.14 183.039 167.446 183.211 167.229L183.206 167.22Z" fill="#30354F"/>
<path d="M170.573 169.219C170.573 169.219 167.466 159.438 168.803 153.219C170.14 147 170.141 145.662 167.032 141.66C163.923 137.658 162.146 134.545 164.594 129.434C167.042 124.323 166.375 122.322 163.267 118.32C160.159 114.318 159.493 108.761 164.385 105.207C169.277 101.653 177.052 107.214 177.938 113.438C178.824 119.662 175.487 124.328 180.596 130.775C185.705 137.222 181.257 141.667 179.921 145.222C178.585 148.777 183.696 152.114 182.361 154.781C181.026 157.448 172.347 176.777 170.573 169.219Z" fill="#5F6386"/>
<path d="M173.155 169.299C172.234 167.306 172.481 164.993 172.732 162.877C172.99 160.71 173.434 158.569 174.059 156.477C175.171 152.752 176.959 149.004 176.14 145.027C175.431 141.591 173.24 138.712 172.23 135.384C171.697 133.487 171.633 131.489 172.043 129.562C172.482 127.651 172.621 125.683 172.455 123.729C171.845 119.111 169.055 115.244 166.329 111.619C166.164 111.4 165.789 111.619 165.957 111.837C168.484 115.201 171.07 118.737 171.894 122.957C172.213 125.119 172.123 127.321 171.627 129.449C171.241 131.236 171.244 133.085 171.637 134.87C172.492 138.258 174.684 141.126 175.572 144.502C176.672 148.668 174.759 152.572 173.603 156.492C172.964 158.666 172.517 160.892 172.268 163.144C172.031 165.276 171.857 167.516 172.782 169.516C172.898 169.768 173.27 169.549 173.154 169.298L173.155 169.299Z" fill="#30354F"/>
</svg>
