<svg width="240" height="187" viewBox="0 0 240 187" fill="none" xmlns="http://www.w3.org/2000/svg">
<path d="M200.71 170.423C200.71 170.423 89.0889 172.423 66.2989 170.423C43.5089 168.423 34.0267 162.771 23.3797 128.336C12.7327 93.9011 66.2989 105.88 93.5799 34.6811C112.331 -14.2549 257.767 76.768 200.71 170.423Z" fill="#EFEFEF"/>
<path d="M201.208 75.9351H21.5508V60.3H201.208V75.9351ZM22.5479 74.9351H200.211V61.293H22.5479V74.9351Z" fill="white"/>
<path d="M129.594 178.157H108.636V0.164062H129.594V178.157ZM109.633 177.157H128.598V1.15698H109.633V177.157Z" fill="white"/>
<path d="M220.088 119.936H0.673828V114.115H220.088V119.936ZM1.67065 118.936H219.092V115.115H1.67065V118.936Z" fill="white"/>
<path d="M224.081 163.852H21.4688V148.383H224.081V163.852ZM22.4648 162.852H223.084V149.377H22.4648V162.852Z" fill="white"/>
<path d="M239.718 186.309H196.968V51.4H239.718V186.309ZM197.965 185.309H238.725V52.396H197.965V185.309Z" fill="white"/>
<path d="M116.776 81.547C116.765 81.522 116.488 80.9241 116.135 79.9301L116.672 79.739C117.016 80.706 117.291 81.3 117.293 81.306L116.776 81.547ZM115.607 78.2841C115.447 77.7251 115.307 77.161 115.183 76.609L115.74 76.4871C115.858 77.0281 115.998 77.5801 116.155 78.1271L115.607 78.2841ZM114.875 74.906C114.791 74.32 114.733 73.74 114.701 73.181L115.27 73.149C115.301 73.691 115.358 74.2551 115.439 74.826L114.875 74.906ZM132.946 74.533C132.359 74.5184 131.775 74.4515 131.2 74.333L131.314 73.774C131.855 73.8854 132.406 73.9476 132.959 73.96L132.946 74.533ZM134.701 74.408L134.608 73.845C135.153 73.7548 135.689 73.614 136.208 73.4241L136.408 73.96C135.854 74.1619 135.282 74.3119 134.701 74.408ZM129.518 73.84C128.973 73.628 128.446 73.3756 127.939 73.085L128.222 72.59C128.703 72.8666 129.204 73.1067 129.722 73.308L129.518 73.84ZM137.992 73.204L137.699 72.714C138.173 72.4323 138.62 72.1052 139.031 71.7371L139.411 72.161C138.972 72.5534 138.497 72.9027 137.992 73.204ZM126.492 72.119C126.031 71.7665 125.59 71.3887 125.171 70.9871L125.565 70.5751C125.968 70.9619 126.393 71.3258 126.837 71.665L126.492 72.119ZM115.263 71.47L114.694 71.444C114.719 70.8631 114.781 70.2844 114.878 69.7111L115.44 69.811C115.345 70.3597 115.284 70.9137 115.258 71.47H115.263ZM140.603 70.854L140.142 70.5181C140.466 70.0774 140.735 69.5985 140.942 69.092L141.471 69.3051C141.244 69.8553 140.951 70.3755 140.598 70.854H140.603ZM123.977 69.728C123.612 69.305 123.25 68.8491 122.901 68.3721L123.361 68.036C123.701 68.5 124.053 68.944 124.409 69.355L123.977 69.728ZM115.839 68.192L115.298 68.0131C115.481 67.456 115.712 66.9159 115.989 66.399L116.489 66.6691C116.227 67.1568 116.008 67.6663 115.834 68.192H115.839ZM141.888 67.567L141.319 67.522C141.329 67.4 141.334 67.276 141.334 67.155C141.334 66.742 141.276 66.3308 141.162 65.934L141.71 65.775C141.839 66.2236 141.904 66.6882 141.904 67.155C141.899 67.291 141.893 67.43 141.883 67.567H141.888ZM121.931 66.942C121.631 66.47 121.339 65.969 121.056 65.455L121.556 65.181C121.834 65.681 122.122 66.1751 122.414 66.6381L121.931 66.942ZM117.405 65.2941L116.962 64.9351C117.332 64.4797 117.744 64.0596 118.192 63.6801L118.561 64.115C118.138 64.4712 117.749 64.866 117.4 65.2941H117.405ZM140.446 64.507C140.119 64.0732 139.732 63.6884 139.297 63.364L139.641 62.9091C140.119 63.2669 140.544 63.6903 140.904 64.167L140.446 64.507ZM120.246 63.952C119.969 63.4414 119.696 62.9414 119.43 62.452L119.93 62.179L120.061 62.4191C120.419 62.2271 120.796 62.048 121.187 61.885L121.406 62.411C121.033 62.566 120.674 62.737 120.333 62.92L120.746 63.6801L120.246 63.952ZM137.89 62.516C137.387 62.2792 136.868 62.0787 136.337 61.916L136.506 61.3721C137.064 61.5437 137.608 61.7549 138.136 62.004L137.89 62.516ZM122.99 61.861L122.833 61.313C123.367 61.159 123.933 61.026 124.52 60.913L124.62 61.474C124.044 61.583 123.494 61.715 122.977 61.861H122.99ZM134.713 61.504C134.188 61.404 133.628 61.313 133.049 61.245L133.114 60.679C133.709 60.748 134.285 60.8381 134.825 60.9451L134.713 61.504ZM126.293 61.229L126.23 60.662C126.781 60.601 127.359 60.556 127.95 60.527L127.977 61.0961C127.386 61.1241 126.819 61.169 126.28 61.229H126.293ZM131.364 61.106C131.194 61.097 131.021 61.09 130.846 61.083C130.446 61.07 130.051 61.0621 129.67 61.0601V60.49C130.057 60.49 130.458 60.5 130.863 60.514C131.042 60.52 131.218 60.528 131.392 60.537L131.364 61.106ZM118.614 60.954C118.332 60.4433 118.058 59.945 117.79 59.459L118.29 59.183C118.56 59.669 118.835 60.169 119.115 60.683L118.614 60.954ZM116.96 57.967C116.674 57.457 116.394 56.9616 116.122 56.481L116.622 56.199C116.894 56.681 117.174 57.1776 117.461 57.689L116.96 57.967ZM115.274 55.001C114.974 54.487 114.687 53.9921 114.413 53.5291L114.903 53.239C115.179 53.703 115.469 54.2001 115.767 54.7161L115.274 55.001ZM113.535 52.069C113.225 51.563 112.922 51.077 112.635 50.625L113.116 50.319C113.406 50.774 113.711 51.263 114.022 51.772L113.535 52.069ZM111.703 49.203C111.37 48.708 111.043 48.241 110.731 47.812L111.191 47.4771C111.507 47.9101 111.839 48.384 112.176 48.884L111.703 49.203ZM109.703 46.47C109.326 46.005 108.953 45.579 108.594 45.203L109.007 44.8101C109.376 45.1971 109.759 45.634 110.146 46.11L109.703 46.47ZM107.376 44.061C106.952 43.7078 106.497 43.3936 106.017 43.1221L106.295 42.6221C106.805 42.9111 107.288 43.2458 107.738 43.6221L107.376 44.061ZM104.51 42.485C103.983 42.3321 103.441 42.2356 102.894 42.197L102.937 41.629C103.524 41.6702 104.105 41.7738 104.671 41.938L104.51 42.485ZM99.5547 42.3981L99.4688 41.834C100.105 41.734 100.669 41.671 101.189 41.634L101.229 42.203C100.708 42.238 100.161 42.3021 99.5398 42.3981H99.5547Z" fill="#FEB701"/>
<path d="M96.0059 44.163H52.6529C48.3373 44.163 44.8389 47.6614 44.8389 51.977V142.813C44.8389 147.129 48.3373 150.627 52.6529 150.627H96.0059C100.321 150.627 103.82 147.129 103.82 142.813V51.977C103.82 47.6614 100.321 44.163 96.0059 44.163Z" fill="#217A7A"/>
<path d="M94.8318 46.4921H53.8298C50.1886 46.4921 47.2368 49.4439 47.2368 53.0851V139.044C47.2368 142.685 50.1886 145.637 53.8298 145.637H94.8318C98.473 145.637 101.425 142.685 101.425 139.044V53.0851C101.425 49.4439 98.473 46.4921 94.8318 46.4921Z" fill="#EEEDFF"/>
<path d="M76.591 45.66H70.977C69.9547 45.66 69.126 46.4888 69.126 47.511V48.135C69.126 49.1573 69.9547 49.986 70.977 49.986H76.591C77.6133 49.986 78.442 49.1573 78.442 48.135V47.511C78.442 46.4888 77.6133 45.66 76.591 45.66Z" fill="#217A7A"/>
<path d="M94.4856 130.999H53.5806C51.968 130.999 50.6606 132.306 50.6606 133.919V134.899C50.6606 136.512 51.968 137.819 53.5806 137.819H94.4856C96.0983 137.819 97.4056 136.512 97.4056 134.899V133.919C97.4056 132.306 96.0983 130.999 94.4856 130.999Z" fill="#B0B0D6"/>
<path d="M190.356 156.456C190.347 156.801 190.267 157.14 190.12 157.452C189.973 157.764 189.763 158.042 189.503 158.268H189.028C188.602 158.317 188.173 158.212 187.818 157.972C187.463 157.732 187.206 157.372 187.094 156.959L186.717 153.537C188.758 153.667 190.356 154.924 190.356 156.456Z" fill="#B0B0D6"/>
<path d="M183.497 142.954C184.289 144.018 185.424 144.778 186.71 145.106C187.996 145.434 189.355 145.309 190.561 144.754C193.48 143.37 195.27 138.738 195.27 138.738C195.27 138.738 191.609 138.183 191.604 137.561C191.599 136.939 193.481 138.183 194.704 136.661C195.927 135.139 199.979 128.846 199.037 128.224C198.501 127.876 197.997 127.482 197.53 127.047C197.53 127.047 198.521 127.134 199.979 125.733C203.652 122.206 203.087 111.555 203.087 111.555C197.718 109.688 193.153 119.578 193.033 120.823C192.913 122.068 193.033 124.835 193.033 124.835C193.033 124.835 191.033 123.796 190.372 124.42C189.711 125.044 186.135 132.028 186.421 132.998C186.707 133.968 188.776 135.903 186.892 135.973C185.008 136.043 183.973 136.526 183.506 137.287C182.946 138.126 182.647 139.111 182.645 140.119C182.643 141.127 182.94 142.114 183.497 142.954Z" fill="#26B1B1"/>
<path d="M185.525 147.338H185.492C185.422 147.325 185.379 147.272 185.398 147.225C185.812 146.055 195.589 118.525 200.462 115.498C200.49 115.481 200.523 115.473 200.556 115.475C200.589 115.477 200.621 115.489 200.647 115.509C200.655 115.516 200.662 115.524 200.668 115.533C200.673 115.542 200.676 115.552 200.677 115.563C200.678 115.573 200.678 115.584 200.675 115.594C200.672 115.604 200.667 115.614 200.66 115.622C200.653 115.632 200.643 115.64 200.631 115.645C195.822 118.634 185.753 146.987 185.651 147.274C185.639 147.296 185.62 147.314 185.598 147.325C185.575 147.337 185.55 147.341 185.525 147.338Z" fill="#001065"/>
<path d="M192.491 145.791L191.604 153.864L191.404 155.714L190.66 162.479L190.46 164.329L190.027 168.28C189.913 168.692 189.655 169.051 189.301 169.29C188.947 169.53 188.519 169.636 188.094 169.589H182.966C182.54 169.638 182.111 169.533 181.756 169.293C181.401 169.053 181.144 168.693 181.031 168.28L180.655 164.857L180.5 163.435L180.022 159.093L179.811 157.174L179.111 150.805L178.898 148.886L178.56 145.804L192.491 145.791Z" fill="#113251"/>
<path d="M191.604 153.864L191.404 155.714L190.661 162.479L190.461 164.329C187.589 163.585 185.53 161.574 185.53 159.209C185.525 156.538 188.146 154.315 191.604 153.864Z" fill="#071C2D"/>
<path d="M191.4 155.715L190.657 162.48C189.922 162.278 189.266 161.857 188.777 161.271C188.289 160.686 187.991 159.965 187.924 159.206C187.925 157.572 189.383 156.185 191.4 155.715Z" fill="#B0B0D6"/>
<path d="M184.403 154.125C184.403 156.338 182.596 158.241 180.014 159.091L179.802 157.172L179.103 150.804L178.891 148.885C182.064 149.483 184.403 151.603 184.403 154.125Z" fill="#071C2D"/>
<path d="M182.001 154.125C181.956 154.787 181.726 155.423 181.337 155.96C180.948 156.497 180.416 156.914 179.802 157.163L179.102 150.795C179.872 150.978 180.566 151.397 181.086 151.995C181.606 152.592 181.926 153.337 182.001 154.125Z" fill="#B0B0D6"/>
<path d="M186.209 167.771C186.205 168.414 186.018 169.043 185.671 169.584H182.961C182.535 169.633 182.106 169.528 181.752 169.287C181.397 169.047 181.14 168.688 181.028 168.274L180.651 164.852L180.496 163.429C183.667 163.506 186.209 165.415 186.209 167.771Z" fill="#071C2D"/>
<path d="M181.048 143.678C183.123 144.94 187.009 145.409 189.048 143.113C191.087 140.817 190.07 135.75 190.07 135.75C190.07 135.75 186.153 136.406 185.775 135.805C185.397 135.204 187.987 135.796 188.275 133.924C188.563 132.052 188.775 124.635 187.485 124.339C186.744 124.173 186.016 123.956 185.306 123.69C185.306 123.69 186.322 123.452 186.92 121.62C188.42 117.006 181.502 106.872 181.502 106.872C175.125 106.812 176.554 117.881 177.183 119.125C177.812 120.369 179.577 123.011 179.577 123.011C179.577 123.011 176.997 122.658 176.723 123.477C176.449 124.296 177.112 132.227 177.964 133.071C178.816 133.915 182.007 135.119 180.202 135.8C178.397 136.481 177.671 137.286 177.664 138.177C177.678 139.314 178 140.426 178.596 141.395C179.192 142.364 180.039 143.153 181.048 143.678Z" fill="#26B1B1"/>
<path d="M185.594 147.268C185.567 147.271 185.539 147.265 185.516 147.25C185.492 147.236 185.475 147.214 185.465 147.188C185.172 145.919 178.318 116.069 181.289 111.551C181.309 111.526 181.337 111.508 181.368 111.5C181.399 111.492 181.432 111.494 181.462 111.506C181.528 111.528 181.555 111.586 181.523 111.634C178.589 116.098 185.656 146.846 185.723 147.155C185.735 147.208 185.687 147.255 185.61 147.268H185.594Z" fill="#001065"/>
<path d="M192.283 145.306H178.76C178.073 145.306 177.516 145.863 177.516 146.55V146.968C177.516 147.655 178.073 148.212 178.76 148.212H192.283C192.97 148.212 193.527 147.655 193.527 146.968V146.55C193.527 145.863 192.97 145.306 192.283 145.306Z" fill="#071C2D"/>
<path d="M143.134 170.204L144.1 170.43C144.313 170.479 144.536 170.442 144.722 170.328C144.908 170.214 145.041 170.032 145.094 169.82L151.794 142.369L153.645 134.78L150.136 133.966L148.794 140.175L142.512 169.222C142.466 169.435 142.505 169.657 142.622 169.84C142.738 170.024 142.922 170.155 143.134 170.204Z" fill="#FDAB71"/>
<path d="M148.793 140.171L151.793 142.364L153.644 134.775L150.134 133.961L148.793 140.171Z" fill="#E99163"/>
<path d="M158.057 134.776L159.373 140.176L166.607 169.819C166.659 170.031 166.792 170.214 166.978 170.328C167.164 170.442 167.387 170.479 167.6 170.43L168.567 170.204C168.779 170.155 168.963 170.025 169.08 169.841C169.196 169.657 169.236 169.435 169.19 169.222L163.384 142.368L161.567 133.968L158.057 134.776Z" fill="#FDAB71"/>
<path d="M158.057 134.776L159.373 140.176L163.383 142.369L161.567 133.969L158.057 134.776Z" fill="#E99163"/>
<path d="M169.014 140.172H143.525C143.369 140.172 143.215 140.141 143.071 140.082C142.926 140.022 142.796 139.934 142.685 139.824C142.575 139.714 142.488 139.583 142.428 139.439C142.368 139.294 142.338 139.14 142.338 138.984V136.815C142.338 135.757 142.758 134.742 143.506 133.994C144.254 133.246 145.269 132.826 146.327 132.826H166.216C166.74 132.826 167.259 132.928 167.743 133.128C168.227 133.328 168.667 133.622 169.038 133.992C169.409 134.362 169.703 134.802 169.904 135.286C170.104 135.769 170.208 136.288 170.208 136.812V138.982C170.208 139.297 170.083 139.599 169.86 139.822C169.637 140.045 169.335 140.17 169.02 140.17L169.014 140.172Z" fill="#B0B0D6"/>
<path d="M160.819 133.815L160.302 120.475L131.753 124.119C130.409 124.29 129.179 124.959 128.303 125.993C127.428 127.027 126.972 128.351 127.025 129.704C127.081 131.139 127.706 132.493 128.76 133.468C129.814 134.443 131.213 134.96 132.648 134.904L160.819 133.815Z" fill="#071C2D"/>
<path d="M163.316 75.8034C164.032 75.7089 164.588 75.437 164.556 75.1961C164.524 74.9552 163.917 74.8365 163.201 74.931C162.484 75.0255 161.929 75.2974 161.96 75.5383C161.992 75.7792 162.599 75.8979 163.316 75.8034Z" fill="#071C2D"/>
<path d="M163.537 75.4637C163.761 74.7769 163.816 74.1782 163.658 74.1265C163.5 74.0748 163.19 74.5897 162.965 75.2765C162.74 75.9633 162.686 76.5619 162.844 76.6136C163.001 76.6653 163.312 76.1505 163.537 75.4637Z" fill="#071C2D"/>
<path d="M142.725 169.115C142.859 169.503 143.114 169.838 143.452 170.072C143.79 170.306 144.193 170.426 144.604 170.415H156.976L156.768 169.115L156.068 164.769H148.243L143.844 166.552C143.602 166.646 143.381 166.788 143.193 166.968C143.006 167.148 142.856 167.363 142.752 167.601C142.648 167.839 142.592 168.096 142.587 168.355C142.583 168.615 142.629 168.873 142.725 169.115Z" fill="#FEB701"/>
<path d="M137.137 131.981L122.51 164.774H114.688L127.114 127.808C127.358 127.14 127.731 126.526 128.213 126.002C128.694 125.478 129.274 125.054 129.919 124.754C130.564 124.454 131.262 124.285 131.973 124.254C132.684 124.224 133.394 124.335 134.062 124.579L134.092 124.59C134.76 124.834 135.373 125.208 135.897 125.689C136.421 126.17 136.845 126.75 137.145 127.396C137.445 128.041 137.615 128.739 137.645 129.45C137.675 130.161 137.565 130.871 137.321 131.539C137.267 131.689 137.205 131.836 137.137 131.981Z" fill="#071C2D"/>
<path d="M169.371 127.177L169.144 121.368L140.595 125.011C139.252 125.182 138.021 125.851 137.145 126.884C136.27 127.918 135.814 129.242 135.866 130.596C135.923 132.031 136.547 133.385 137.602 134.36C138.656 135.335 140.054 135.851 141.489 135.796L162.129 134.996C164.126 134.918 166.011 134.051 167.368 132.584C168.726 131.117 169.445 129.171 169.367 127.174L169.371 127.177Z" fill="#113251"/>
<path d="M136.206 132.376L148.265 164.776H156.075L146.54 129.043C146.159 127.657 145.243 126.48 143.994 125.769C142.745 125.059 141.265 124.874 139.88 125.254L139.849 125.262C139.163 125.45 138.52 125.772 137.959 126.208C137.397 126.645 136.926 127.188 136.574 127.806C136.222 128.425 135.996 129.106 135.907 129.812C135.819 130.518 135.87 131.235 136.059 131.921C136.101 132.073 136.15 132.226 136.206 132.376Z" fill="#113251"/>
<path d="M117.456 82.977C118.073 82.052 120.036 82.689 121.632 83.385C121.407 82.464 121.416 81.5109 121.801 81.3039C122.355 81.0089 123.477 82.367 124.05 83.437C124.601 84.1364 125.047 84.9131 125.373 85.742C125.479 86.4219 125.311 87.1161 124.907 87.6726C124.502 88.2291 123.893 88.6026 123.214 88.711C123.052 88.7351 122.889 88.7448 122.726 88.74C121.968 88.827 121.202 88.6929 120.52 88.354C118.877 87.566 116.052 85.079 117.456 82.977Z" fill="#FF7977"/>
<path d="M154.604 91.828C153.605 90.5927 152.157 89.8045 150.578 89.6369C148.998 89.4692 147.417 89.9358 146.182 90.934L132.534 101.96C131.564 102.745 130.945 103.883 130.814 105.124C130.682 106.365 131.049 107.607 131.834 108.578L131.853 108.601C132.564 109.481 133.567 110.075 134.681 110.276C135.794 110.476 136.942 110.268 137.915 109.691L153.004 100.741C153.742 100.302 154.377 99.7094 154.866 99.0035C155.355 98.2975 155.687 97.4946 155.839 96.6493C155.99 95.804 155.959 94.9359 155.746 94.1039C155.533 93.2719 155.143 92.4954 154.604 91.8271V91.828Z" fill="#FEB701"/>
<path d="M139.466 102.241L124.555 84.209L120.223 88.201L131.104 107.792C131.459 108.421 131.944 108.966 132.529 109.39C133.113 109.814 133.781 110.108 134.489 110.251C135.196 110.394 135.926 110.383 136.629 110.218C137.332 110.054 137.992 109.741 138.563 109.299C139.618 108.483 140.306 107.281 140.476 105.957C140.645 104.633 140.282 103.297 139.466 102.241Z" fill="#FEB701"/>
<path d="M169.275 122.303C158.7 122.576 148.661 129.396 144.554 122.303L147.209 90.2521C154.359 86.3521 164.164 86.3921 169.27 90.2521L169.275 122.303Z" fill="#FEB701"/>
<path d="M154.554 88.21C154.654 89.843 155.201 91.721 157.226 91.623C160.775 91.451 161.626 87.723 161.626 87.723C161.626 87.723 161.337 82.383 161.254 82.329H154.66V85.885C154.546 86.6545 154.511 87.4334 154.554 88.21Z" fill="#FF7977"/>
<path d="M154.554 88.21C159.654 87.152 160.383 84.459 160.383 84.459L155.255 82.327H154.667V85.8831C154.551 86.6529 154.513 87.4325 154.554 88.21Z" fill="#F35757"/>
<path d="M162.225 80.392C162.225 80.392 160.694 87.872 154.989 86.34C154.34 86.168 153.748 85.8268 153.275 85.3511C152.851 84.9261 152.544 84.3992 152.383 83.821C151.809 81.746 151.911 78.361 152.528 73.938L162.228 74.7631L162.225 80.392Z" fill="#FF7977"/>
<path d="M167.062 90.178C165.489 90.3951 164.066 91.2283 163.107 92.4941C162.149 93.76 161.732 95.3548 161.949 96.928L164.349 114.312C164.433 114.924 164.636 115.513 164.948 116.046C165.26 116.579 165.674 117.046 166.166 117.419C166.659 117.792 167.219 118.064 167.817 118.221C168.414 118.377 169.037 118.414 169.649 118.329H169.679C170.799 118.175 171.827 117.622 172.573 116.772C173.319 115.922 173.735 114.832 173.743 113.701L173.864 96.155C173.877 94.5684 173.26 93.0414 172.148 91.9098C171.036 90.7782 169.52 90.1347 167.933 90.121C167.642 90.1192 167.35 90.1383 167.062 90.178Z" fill="#FEB701"/>
<path d="M162.589 80.956C162.57 80.956 161.452 79.738 160.476 81.378C160.476 81.378 162.199 80.566 162.57 80.956" fill="#F35757"/>
<path d="M146.001 104.894L146.628 97.328L145.37 105.268L146.001 104.894Z" fill="#E59E00"/>
<path d="M142.725 169.115C142.859 169.503 143.114 169.838 143.452 170.072C143.789 170.306 144.193 170.426 144.604 170.415H156.976L156.768 169.115H142.725Z" fill="#071C2D"/>
<path d="M109.164 169.115C109.298 169.503 109.552 169.838 109.89 170.072C110.228 170.306 110.631 170.426 111.041 170.415H123.415L123.206 169.115L122.506 164.769H114.684L110.283 166.552C109.795 166.743 109.403 167.121 109.193 167.602C108.983 168.082 108.972 168.627 109.164 169.115Z" fill="#FEB701"/>
<path d="M109.164 169.115C109.299 169.503 109.553 169.838 109.891 170.072C110.228 170.306 110.631 170.426 111.042 170.415H123.415L123.206 169.115H109.164Z" fill="#071C2D"/>
<path d="M159.94 77.699C155.407 78.489 151.677 77.36 150.699 74.632C150.61 74.3803 150.583 74.1109 150.622 73.8466C150.66 73.5824 150.762 73.3313 150.919 73.1153C151.076 72.8993 151.282 72.7247 151.522 72.6065C151.761 72.4883 152.026 72.4302 152.293 72.4371C155.335 72.7414 158.357 73.2161 161.346 73.8591C161.603 73.9038 161.852 73.9836 162.088 74.0961C164.097 75.0611 164.662 76.8961 164.206 79.3491C163.434 82.9941 162.247 83.6491 160.966 83.6391C161.046 81.4621 159.385 79.75 159.94 77.699Z" fill="#071C2D"/>
<path d="M161.555 83.331C162.392 83.331 163.071 82.4567 163.071 81.378C163.071 80.2994 162.392 79.425 161.555 79.425C160.718 79.425 160.039 80.2994 160.039 81.378C160.039 82.4567 160.718 83.331 161.555 83.331Z" fill="#FF7977"/>
<path d="M162.589 81.076C162.474 80.9274 162.324 80.8097 162.152 80.7338C161.981 80.658 161.792 80.6263 161.605 80.6416C161.418 80.6569 161.238 80.7187 161.08 80.8215C160.923 80.9243 160.794 81.0646 160.705 81.2299C161.296 80.9603 161.962 80.9059 162.589 81.076Z" fill="#F35757"/>
<path d="M141.108 121.915C140.483 120.993 141.815 119.415 143.062 118.201C142.124 118.061 141.244 117.694 141.199 117.26C141.134 116.635 142.814 116.108 144.021 115.982C144.877 115.736 145.765 115.616 146.656 115.626C147.325 115.784 147.905 116.202 148.268 116.787C148.63 117.372 148.746 118.077 148.59 118.747C148.553 118.905 148.5 119.06 148.434 119.208C148.228 119.943 147.815 120.602 147.243 121.108C145.892 122.334 142.525 124.015 141.108 121.915Z" fill="#FF7977"/>
<path d="M167.254 108.807L144.928 115.807L146.99 121.327L169.239 118.644C169.894 118.56 170.527 118.348 171.1 118.02C171.674 117.692 172.177 117.254 172.581 116.732C172.985 116.209 173.282 115.612 173.456 114.974C173.629 114.337 173.676 113.671 173.592 113.016C173.562 112.776 173.514 112.539 173.449 112.306C173.091 111.021 172.238 109.93 171.076 109.274C169.914 108.617 168.539 108.449 167.254 108.807Z" fill="#FEB701"/>
<path d="M162.803 103.115L163.741 109.915L148.659 114.645L163.116 109.293L162.803 103.115Z" fill="#CC8800"/>
<path d="M169.239 118.645L146.99 121.328L169.239 119.253V118.645Z" fill="#CC8800"/>
<path d="M157.456 91.605C156.001 90.3467 154.987 88.6559 154.562 86.78L152.688 88.129C152.688 88.129 153.922 91.854 155.722 92.968L157.456 91.605Z" fill="#113251"/>
<path d="M157.825 91.556C157.825 91.556 160.913 89.603 161.504 86.614L163.619 87.814C163.619 87.814 161.362 91.94 159.565 93.052L157.825 91.556Z" fill="#113251"/>
<path d="M157.695 91.626H157.553V97.328H157.695V91.626Z" fill="#303D8B"/>
<path d="M125.357 86.1378L121.063 89.745L121.155 89.8537L125.449 86.2465L125.357 86.1378Z" fill="#303D8B"/>
<path d="M147.056 115.136L146.924 115.187L148.593 119.529L148.726 119.478L147.056 115.136Z" fill="#303D8B"/>
<path d="M119.31 77.2721L114.372 78.3803C113.897 78.4867 113.599 78.9575 113.705 79.4319L116.151 90.3299C116.257 90.8042 116.728 91.1025 117.202 90.9961L122.141 89.8879C122.615 89.7815 122.914 89.3107 122.807 88.8363L120.362 77.9383C120.255 77.464 119.784 77.1657 119.31 77.2721Z" fill="#217A7A"/>
<path d="M62.4619 82.395C62.5001 80.7787 62.9972 79.2066 63.895 77.8621C64.938 76.2515 66.3819 74.9399 68.085 74.056C70.0647 73.015 72.2768 72.495 74.5129 72.545C76.5916 72.5033 78.6529 72.9327 80.542 73.801C82.1786 74.548 83.5768 75.733 84.582 77.225C85.5159 78.6169 86.0131 80.2559 86.01 81.932C86.0371 83.1514 85.7583 84.3581 85.199 85.442C84.691 86.4011 84.0407 87.2777 83.27 88.042C82.524 88.772 81.1864 90.001 79.2571 91.729C78.8056 92.1326 78.3773 92.5613 77.9741 93.0131C77.6947 93.3214 77.4539 93.6625 77.2571 94.0291C77.105 94.3224 76.9827 94.6302 76.8921 94.948C76.8061 95.2527 76.6766 95.7904 76.5039 96.561C76.4822 96.9062 76.3925 97.2437 76.2397 97.554C76.087 97.8643 75.8743 98.1413 75.614 98.369C75.3537 98.5968 75.051 98.7707 74.7231 98.8809C74.3953 98.991 74.0491 99.0353 73.7041 99.011C73.3245 99.0209 72.9468 98.9553 72.5928 98.818C72.2388 98.6807 71.9156 98.4744 71.6421 98.2111C71.3462 97.894 71.119 97.5191 70.9751 97.11C70.8312 96.7009 70.7736 96.2664 70.8059 95.834C70.7302 93.6262 71.5334 91.4786 73.0391 89.8621C73.9046 88.9499 74.8158 88.082 75.769 87.262C76.769 86.3833 77.495 85.7197 77.947 85.271C78.3911 84.8258 78.771 84.3209 79.0759 83.771C79.3801 83.2237 79.5379 82.6071 79.5339 81.981C79.543 81.3816 79.4228 80.7873 79.1812 80.2386C78.9395 79.69 78.5823 79.2 78.134 78.802C77.1433 77.919 75.848 77.4557 74.522 77.51C73.8301 77.4503 73.1334 77.5359 72.4766 77.7614C71.8197 77.9868 71.2174 78.347 70.708 78.819C69.7576 79.9446 69.0525 81.2563 68.6379 82.67C68.1046 84.444 67.0927 85.3317 65.6021 85.333C65.1868 85.3415 64.7742 85.2634 64.3909 85.1034C64.0076 84.9434 63.662 84.7052 63.376 84.4041C63.0969 84.1475 62.8721 83.8374 62.7151 83.4923C62.5581 83.1472 62.472 82.774 62.4619 82.395ZM73.968 108.195C73.0452 108.209 72.1503 107.878 71.459 107.267C71.0975 106.941 70.8137 106.539 70.6282 106.089C70.4427 105.639 70.3602 105.153 70.387 104.667C70.376 104.201 70.4623 103.738 70.6404 103.308C70.8184 102.878 71.0842 102.489 71.4209 102.167C71.7547 101.835 72.1522 101.575 72.5891 101.4C73.026 101.225 73.4937 101.141 73.9641 101.151C74.8816 101.137 75.7669 101.489 76.4253 102.128C77.0837 102.767 77.4614 103.641 77.4751 104.559V104.659C77.5006 105.144 77.4189 105.628 77.2358 106.077C77.0528 106.527 76.7728 106.93 76.416 107.259C75.7481 107.87 74.8731 108.204 73.968 108.194V108.195Z" fill="#A8A8CC"/>
</svg>
