<svg width="414" height="734" viewBox="0 0 414 734" fill="none" xmlns="http://www.w3.org/2000/svg">
<path d="M414 0H0V734H414V0Z" fill="white"/>
<path d="M53 874H20V790.5C20 765.703 10.1491 741.921 -7.38553 724.386C-24.9202 706.851 -48.7023 697 -73.5 697C-98.2977 697 -122.08 706.851 -139.614 724.386C-157.149 741.921 -167 765.703 -167 790.5V874H-200V786.5C-200.002 777.938 -199.141 769.397 -197.431 761.006C-194.118 744.826 -187.651 729.456 -178.4 715.773C-164.669 695.434 -145.335 679.514 -122.739 669.941C-115.087 666.706 -107.133 664.237 -98.994 662.57C-82.1704 659.143 -64.8286 659.143 -48.005 662.57C-31.8247 665.883 -16.4551 672.35 -2.77301 681.6C17.5652 695.33 33.4855 714.663 43.059 737.256C46.2939 744.909 48.763 752.863 50.43 761.002C52.1413 769.394 53.0023 777.936 53 786.5V874Z" fill="#26B1B1"/>
<path d="M314.397 115.548C307.557 110.396 301.254 104.569 295.583 98.1533C284.654 85.7698 276.271 71.3553 270.911 55.7326C262.932 32.5266 261.853 7.50483 267.805 -16.3018C269.828 -24.3601 272.643 -32.1984 276.209 -39.7022C279.892 -47.4323 284.345 -54.7718 289.499 -61.6093L347.574 -138.678L373.929 -118.818L319.198 -46.1866C304.274 -26.3822 297.829 -1.46063 301.28 23.0958C304.732 47.6522 317.796 69.8319 337.601 84.7555C357.405 99.6792 382.327 106.124 406.883 102.673C431.439 99.222 453.619 86.1572 468.543 66.3528L523.274 -6.2783L549.629 13.5816L491.554 90.6499C486.403 97.4897 480.575 103.793 474.159 109.464C461.776 120.393 447.361 128.776 431.739 134.136C408.534 142.116 383.514 143.196 359.708 137.244C351.65 135.222 343.812 132.407 336.308 128.841C328.576 125.157 321.236 120.704 314.397 115.548Z" fill="#26B1B1"/>
<path d="M357.728 58.046C350.432 52.5581 344.291 45.6856 339.654 37.8217C335.018 29.9578 331.977 21.2569 330.706 12.2167C329.436 3.17651 329.96 -6.02547 332.25 -14.8627C334.539 -23.7 338.549 -31.9992 344.049 -39.2853L393.097 -104.374L504.107 -20.7218L455.059 44.367C449.571 51.6623 442.699 57.804 434.835 62.4406C426.971 67.0772 418.27 70.1177 409.23 71.3883C400.19 72.6588 390.988 72.1343 382.15 69.8449C373.313 67.5555 365.014 63.546 357.728 58.046Z" fill="#FFBE1A"/>
</svg>
